HIERARCHY
ROOT mixamorig:Hips
{
	OFFSET 0.000000 201.639420 0.000000
	CHANNELS 6 Xposition Yposition Zposition Xrotation Yrotation Zrotation
	JOINT mixamorig:Spine
	{
		OFFSET 0.006200 19.524994 -2.481800
		CHANNELS 3 Xrotation Yrotation Zrotation
		JOINT mixamorig:Spine1
		{
			OFFSET -0.000900 22.835007 -2.825400
			CHANNELS 3 Xrotation Yrotation Zrotation
			JOINT mixamorig:Spine2
			{
				OFFSET -0.020600 26.552490 -3.193300
				CHANNELS 3 Xrotation Yrotation Zrotation
				JOINT mixamorig:Neck
				{
					OFFSET -0.060000 30.701813 1.352200
					CHANNELS 3 Xrotation Yrotation Zrotation
					JOINT mixamorig:Head
					{
						OFFSET -0.087200 22.547607 3.670900
						CHANNELS 3 Xrotation Yrotation Zrotation
						JOINT mixamorig:HeadTop_End
						{
							OFFSET -0.830600 40.355194 7.893500
							CHANNELS 3 Xrotation Yrotation Zrotation
							End Site
							{
								OFFSET 0.000000 30.592346 0.000000
							}
						}
						JOINT mixamorig:RightEye
						{
							OFFSET -6.302100 18.118591 16.197100
							CHANNELS 3 Xrotation Yrotation Zrotation
							End Site
							{
								OFFSET 0.000000 30.592346 0.000000
							}
						}
						JOINT mixamorig:LeftEye
						{
							OFFSET 6.741500 18.382690 16.401899
							CHANNELS 3 Xrotation Yrotation Zrotation
							End Site
							{
								OFFSET 0.000000 30.592346 0.000000
							}
						}
					}
				}
				JOINT mixamorig:LeftShoulder
				{
					OFFSET 11.924900 18.230499 1.425400
					CHANNELS 3 Xrotation Yrotation Zrotation
					JOINT mixamorig:LeftArm
					{
						OFFSET 25.435989 -0.697632 -5.229300
						CHANNELS 3 Xrotation Yrotation Zrotation
						JOINT mixamorig:LeftForeArm
						{
							OFFSET 54.684776 0.000000 0.000000
							CHANNELS 3 Xrotation Yrotation Zrotation
							JOINT mixamorig:LeftHand
							{
								OFFSET 55.098175 0.000000 0.000000
								CHANNELS 3 Xrotation Yrotation Zrotation
								JOINT mixamorig:LeftHandMiddle1
								{
									OFFSET 23.369751 0.000000 0.000000
									CHANNELS 3 Xrotation Yrotation Zrotation
									JOINT mixamorig:LeftHandMiddle2
									{
										OFFSET 6.378677 0.000000 0.000000
										CHANNELS 3 Xrotation Yrotation Zrotation
										JOINT mixamorig:LeftHandMiddle3
										{
											OFFSET 6.148331 0.000000 0.000000
											CHANNELS 3 Xrotation Yrotation Zrotation
											JOINT mixamorig:LeftHandMiddle4
											{
												OFFSET 6.582504 0.000000 0.000000
												CHANNELS 3 Xrotation Yrotation Zrotation
												End Site
												{
													OFFSET -1.168900 6.395691 1.028606
												}
											}
										}
									}
								}
								JOINT mixamorig:LeftHandThumb1
								{
									OFFSET 7.235672 -3.848206 5.434273
									CHANNELS 3 Xrotation Yrotation Zrotation
									JOINT mixamorig:LeftHandThumb2
									{
										OFFSET 6.568451 -3.792297 3.792300
										CHANNELS 3 Xrotation Yrotation Zrotation
										JOINT mixamorig:LeftHandThumb3
										{
											OFFSET 6.063080 -3.500519 3.500518
											CHANNELS 3 Xrotation Yrotation Zrotation
											JOINT mixamorig:LeftHandThumb4
											{
												OFFSET 4.793182 -2.767334 2.767349
												CHANNELS 3 Xrotation Yrotation Zrotation
												End Site
												{
													OFFSET 0.101639 6.054260 1.275483
												}
											}
										}
									}
								}
								JOINT mixamorig:LeftHandIndex1
								{
									OFFSET 23.101074 -0.309540 4.992809
									CHANNELS 3 Xrotation Yrotation Zrotation
									JOINT mixamorig:LeftHandIndex2
									{
										OFFSET 6.226883 0.000000 0.000000
										CHANNELS 3 Xrotation Yrotation Zrotation
										JOINT mixamorig:LeftHandIndex3
										{
											OFFSET 6.094330 0.000000 0.000000
											CHANNELS 3 Xrotation Yrotation Zrotation
											JOINT mixamorig:LeftHandIndex4
											{
												OFFSET 5.482605 0.000000 0.000000
												CHANNELS 3 Xrotation Yrotation Zrotation
												End Site
												{
													OFFSET -1.427902 5.233032 0.797164
												}
											}
										}
									}
								}
								JOINT mixamorig:LeftHandRing1
								{
									OFFSET 22.299240 0.021149 -3.964172
									CHANNELS 3 Xrotation Yrotation Zrotation
									JOINT mixamorig:LeftHandRing2
									{
										OFFSET 6.321869 0.000000 0.000000
										CHANNELS 3 Xrotation Yrotation Zrotation
										JOINT mixamorig:LeftHandRing3
										{
											OFFSET 5.899796 0.000000 0.000000
											CHANNELS 3 Xrotation Yrotation Zrotation
											JOINT mixamorig:LeftHandRing4
											{
												OFFSET 6.517899 0.000000 0.000000
												CHANNELS 3 Xrotation Yrotation Zrotation
												End Site
												{
													OFFSET -1.637299 6.232208 0.980890
												}
											}
										}
									}
								}
								JOINT mixamorig:LeftHandPinky1
								{
									OFFSET 20.463791 -0.302338 -8.562233
									CHANNELS 3 Xrotation Yrotation Zrotation
									JOINT mixamorig:LeftHandPinky2
									{
										OFFSET 6.908646 0.000000 0.000000
										CHANNELS 3 Xrotation Yrotation Zrotation
										JOINT mixamorig:LeftHandPinky3
										{
											OFFSET 4.622849 0.000000 0.000000
											CHANNELS 3 Xrotation Yrotation Zrotation
											JOINT mixamorig:LeftHandPinky4
											{
												OFFSET 5.216080 0.000000 0.000000
												CHANNELS 3 Xrotation Yrotation Zrotation
												End Site
												{
													OFFSET -0.606308 5.116241 0.814926
												}
											}
										}
									}
								}
							}
						}
					}
				}
				JOINT mixamorig:RightShoulder
				{
					OFFSET -12.001300 18.284088 1.348900
					CHANNELS 3 Xrotation Yrotation Zrotation
					JOINT mixamorig:RightArm
					{
						OFFSET -25.308500 -0.751312 -5.164599
						CHANNELS 3 Xrotation Yrotation Zrotation
						JOINT mixamorig:RightForeArm
						{
							OFFSET -54.684429 0.000000 0.000000
							CHANNELS 3 Xrotation Yrotation Zrotation
							JOINT mixamorig:RightHand
							{
								OFFSET -55.150291 0.000000 0.000000
								CHANNELS 3 Xrotation Yrotation Zrotation
								JOINT mixamorig:RightHandMiddle1
								{
									OFFSET -23.317566 0.000000 0.000000
									CHANNELS 3 Xrotation Yrotation Zrotation
									JOINT mixamorig:RightHandMiddle2
									{
										OFFSET -6.378403 0.000000 0.000000
										CHANNELS 3 Xrotation Yrotation Zrotation
										JOINT mixamorig:RightHandMiddle3
										{
											OFFSET -6.148193 0.000000 0.000000
											CHANNELS 3 Xrotation Yrotation Zrotation
											JOINT mixamorig:RightHandMiddle4
											{
												OFFSET -6.583389 0.000000 0.000000
												CHANNELS 3 Xrotation Yrotation Zrotation
												End Site
												{
													OFFSET 1.171692 6.395905 1.029786
												}
											}
										}
									}
								}
								JOINT mixamorig:RightHandThumb1
								{
									OFFSET -7.190521 -3.860474 5.435846
									CHANNELS 3 Xrotation Yrotation Zrotation
									JOINT mixamorig:RightHandThumb2
									{
										OFFSET -6.567429 -3.791718 3.791708
										CHANNELS 3 Xrotation Yrotation Zrotation
										JOINT mixamorig:RightHandThumb3
										{
											OFFSET -6.062469 -3.500153 3.500166
											CHANNELS 3 Xrotation Yrotation Zrotation
											JOINT mixamorig:RightHandThumb4
											{
												OFFSET -4.792618 -2.767029 2.767022
												CHANNELS 3 Xrotation Yrotation Zrotation
												End Site
												{
													OFFSET -0.100327 6.053253 1.276754
												}
											}
										}
									}
								}
								JOINT mixamorig:RightHandIndex1
								{
									OFFSET -23.048981 -0.310791 4.992554
									CHANNELS 3 Xrotation Yrotation Zrotation
									JOINT mixamorig:RightHandIndex2
									{
										OFFSET -6.227539 0.000000 0.000000
										CHANNELS 3 Xrotation Yrotation Zrotation
										JOINT mixamorig:RightHandIndex3
										{
											OFFSET -6.095047 0.000000 0.000000
											CHANNELS 3 Xrotation Yrotation Zrotation
											JOINT mixamorig:RightHandIndex4
											{
												OFFSET -5.484772 0.000000 0.000000
												CHANNELS 3 Xrotation Yrotation Zrotation
												End Site
												{
													OFFSET 1.420593 5.237305 0.797056
												}
											}
										}
									}
								}
								JOINT mixamorig:RightHandRing1
								{
									OFFSET -22.246323 0.020569 -3.963762
									CHANNELS 3 Xrotation Yrotation Zrotation
									JOINT mixamorig:RightHandRing2
									{
										OFFSET -6.322128 0.000000 0.000000
										CHANNELS 3 Xrotation Yrotation Zrotation
										JOINT mixamorig:RightHandRing3
										{
											OFFSET -5.900024 0.000000 0.000000
											CHANNELS 3 Xrotation Yrotation Zrotation
											JOINT mixamorig:RightHandRing4
											{
												OFFSET -6.518356 0.000000 0.000000
												CHANNELS 3 Xrotation Yrotation Zrotation
												End Site
												{
													OFFSET 1.636398 6.232697 0.982186
												}
											}
										}
									}
								}
								JOINT mixamorig:RightHandPinky1
								{
									OFFSET -20.411011 -0.303314 -8.561701
									CHANNELS 3 Xrotation Yrotation Zrotation
									JOINT mixamorig:RightHandPinky2
									{
										OFFSET -6.907349 0.000000 0.000000
										CHANNELS 3 Xrotation Yrotation Zrotation
										JOINT mixamorig:RightHandPinky3
										{
											OFFSET -4.623840 0.000000 0.000000
											CHANNELS 3 Xrotation Yrotation Zrotation
											JOINT mixamorig:RightHandPinky4
											{
												OFFSET -5.218353 0.000000 0.000000
												CHANNELS 3 Xrotation Yrotation Zrotation
												End Site
												{
													OFFSET 0.602097 5.118835 0.816273
												}
											}
										}
									}
								}
							}
						}
					}
				}
			}
		}
	}
	JOINT mixamorig:LeftUpLeg
	{
		OFFSET 18.168400 -13.561905 -0.039000
		CHANNELS 3 Xrotation Yrotation Zrotation
		JOINT mixamorig:LeftLeg
		{
			OFFSET 0.577358 -80.825211 -3.695000
			CHANNELS 3 Xrotation Yrotation Zrotation
			JOINT mixamorig:LeftFoot
			{
				OFFSET -0.577356 -83.370262 -6.520700
				CHANNELS 3 Xrotation Yrotation Zrotation
				JOINT mixamorig:LeftToeBase
				{
					OFFSET 0.750401 -20.798306 25.135401
					CHANNELS 3 Xrotation Yrotation Zrotation
					JOINT mixamorig:LeftToe_End
					{
						OFFSET -0.000500 0.001200 19.917799
						CHANNELS 3 Xrotation Yrotation Zrotation
						End Site
						{
							OFFSET 0.000000 19.917805 0.000000
						}
					}
				}
			}
		}
	}
	JOINT mixamorig:RightUpLeg
	{
		OFFSET -18.162500 -13.585098 -0.041000
		CHANNELS 3 Xrotation Yrotation Zrotation
		JOINT mixamorig:RightLeg
		{
			OFFSET -0.595024 -80.945297 -3.631900
			CHANNELS 3 Xrotation Yrotation Zrotation
			JOINT mixamorig:RightFoot
			{
				OFFSET 0.595024 -83.218193 -6.561200
				CHANNELS 3 Xrotation Yrotation Zrotation
				JOINT mixamorig:RightToeBase
				{
					OFFSET -0.753601 -20.807106 25.115000
					CHANNELS 3 Xrotation Yrotation Zrotation
					JOINT mixamorig:RightToe_End
					{
						OFFSET 0.000299 0.001700 19.918200
						CHANNELS 3 Xrotation Yrotation Zrotation
						End Site
						{
							OFFSET 0.000000 19.918203 0.000000
						}
					}
				}
			}
		}
	}
}
MOTION
Frames: 5
Frame Time: 0.033333
-5.785728 170.340393 9.109531 -3.426152 -20.706273 -1.133932 55.739589 6.025059 6.549385 5.635498 0.516615 1.062430 5.641022 0.533124 1.032757 -16.408650 1.369333 -1.036110 -4.899244 5.013545 11.231466 0.000001 -0.000001 -0.000000 0.000001 -0.000001 -0.000000 0.000001 -0.000001 -0.000000 -37.571074 -4.822514 1.545824 -86.371362 -9.245149 -85.168976 0.000009 -37.442677 0.000015 -108.013383 17.392546 7.661480 0.405919 5.507039 -52.453155 3.387136 5.308613 -65.057463 0.282017 1.797464 -17.832386 0.000001 0.000001 -0.000005 1.567993 0.456396 2.719338 19.473185 -1.474888 7.636922 -4.536180 -9.613099 1.492980 0.000001 -0.000001 -0.000000 -1.882821 2.129411 -39.817025 2.947092 5.081724 -60.200536 0.514384 2.402393 -24.167409 -0.000000 -0.000000 -0.000001 -0.074364 5.736823 -61.061393 4.422086 5.674480 -75.840419 0.582668 2.548965 -25.748013 -0.000001 0.000001 -0.000001 2.216809 7.072464 -64.435417 4.422621 5.674613 -75.845767 1.294119 3.673928 -38.798459 -0.000001 0.000001 0.000000 -41.176291 -8.605646 -9.942314 -42.383865 44.134500 91.994418 -0.000077 107.249481 0.000079 -17.007789 -16.141282 -29.426617 3.413048 -7.186245 51.650242 6.296828 -4.359598 110.634687 0.248712 -1.503058 18.790267 0.000002 0.000000 -0.000001 8.377131 -4.904121 11.022008 21.620180 -18.183895 -18.379228 -0.702947 -49.821193 -32.535200 0.000003 -0.000000 -0.000001 -1.101398 1.407144 15.159519 1.422352 -3.352163 45.974092 0.615851 -2.316437 29.773109 -0.000000 0.000000 -0.000001 -3.349039 -2.600437 57.010568 5.440880 -4.590888 99.698140 1.689408 -3.590662 50.382252 0.000000 0.000001 0.000000 -3.996451 -3.303937 64.593864 4.058844 -4.618663 82.610503 2.315560 -4.026783 59.787221 -0.000002 0.000001 0.000002 -61.335925 2.457709 5.028303 83.301335 4.956143 -0.561333 -4.499157 0.485678 -5.939336 5.083533 0.000001 0.000000 -0.000002 0.000001 0.000000 -48.080546 -1.826311 6.906172 64.463312 -2.719519 -7.769424 -12.578534 -11.490636 0.381848 -4.713495 0.000011 0.000003 -0.000000 0.000001 0.000000 
-5.894511 169.636139 2.094782 -3.442137 -20.696682 -1.202760 55.399726 6.105741 6.488635 5.627796 0.533110 1.064130 5.633261 0.548087 1.029921 -16.001286 1.262144 -0.603711 -4.530263 5.277556 10.897796 0.000001 0.000001 -0.000002 0.000001 0.000001 -0.000002 0.000001 0.000001 -0.000002 -37.549884 -5.197090 1.445546 -86.498704 -9.131299 -84.790440 -0.000014 -38.694524 0.000002 -107.459469 17.089304 8.702324 0.401406 5.504204 -52.464708 3.381795 5.306137 -64.999803 0.280227 1.791890 -17.775306 0.000003 0.000002 -0.000001 1.595752 0.602669 2.363814 19.541238 -1.157158 7.501854 -4.530353 -9.586037 1.490385 0.000004 -0.000003 0.000002 -1.931925 2.058065 -39.736613 2.942959 5.079372 -60.153954 0.512476 2.398139 -24.121725 -0.000000 -0.000001 -0.000003 -0.102241 5.719688 -61.037412 4.424553 5.675106 -75.865247 0.583839 2.551389 -25.774269 -0.000001 -0.000003 -0.000003 2.210041 7.067279 -64.357362 4.422337 5.674542 -75.842878 1.293938 3.673719 -38.795615 0.000000 0.000001 0.000001 -41.059385 -8.508517 -9.522882 -42.496880 43.407006 92.305861 0.000061 107.632908 -0.000069 -16.610591 -16.297386 -28.533450 3.444148 -7.212062 51.619855 6.298583 -4.358927 110.657875 0.248714 -1.503055 18.790264 0.000002 -0.000000 -0.000002 8.349415 -4.886872 10.957905 21.648841 -18.230338 -18.368802 -0.704177 -49.831653 -32.541265 0.000003 0.000001 0.000000 -1.097947 1.396617 15.151943 1.422351 -3.352165 45.974089 0.615852 -2.316438 29.773112 -0.000002 0.000001 -0.000001 -3.341552 -2.601765 56.984722 5.442883 -4.590562 99.723296 1.690974 -3.592006 50.407462 -0.000000 0.000001 0.000003 -4.000336 -3.295099 64.545800 4.064744 -4.619406 82.683927 2.320690 -4.029778 59.860447 0.000000 -0.000003 -0.000004 -57.044183 3.400803 3.629998 91.014497 6.052812 -1.146647 -6.448146 -2.120752 -7.804118 3.818898 -0.000002 -0.000001 -0.000001 0.000001 -0.000000 -49.555369 -1.721693 7.784601 62.576206 -2.499940 -7.796911 -9.467223 -11.640531 2.011347 -2.561185 0.000008 0.000000 -0.000000 -0.000000 -0.000000 
-5.648866 168.805206 -5.503766 -3.440841 -20.478584 -1.263168 54.831915 6.183730 6.820761 5.683061 0.539893 1.041292 5.688284 0.548587 1.004313 -15.894928 1.189890 -0.409792 -4.043310 5.312580 10.548833 -0.000000 0.000002 -0.000001 -0.000000 0.000002 -0.000001 -0.000000 0.000002 -0.000001 -37.551014 -5.286549 1.495650 -87.060692 -9.309739 -84.870619 -0.000002 -38.337702 -0.000010 -107.104026 17.196418 8.952697 0.384738 5.493189 -52.497107 3.376507 5.303679 -64.942559 0.278471 1.786407 -17.718957 -0.000000 -0.000003 0.000000 1.645585 0.801680 2.101624 19.567380 -1.029262 7.447479 -4.527350 -9.582566 1.487916 0.000001 -0.000002 0.000001 -1.943222 2.040824 -39.712748 2.939091 5.077166 -60.110234 0.510659 2.394104 -24.078432 0.000003 0.000001 -0.000002 -0.112390 5.715185 -61.052664 4.419825 5.673913 -75.817463 0.581753 2.547081 -25.727473 -0.000001 -0.000001 0.000001 2.207974 7.067453 -64.403315 4.419877 5.673929 -75.818064 1.292393 3.671787 -38.771302 -0.000001 -0.000005 -0.000000 -41.038307 -8.433736 -9.426022 -42.604172 42.985133 92.574601 0.000190 107.869260 -0.000210 -16.698884 -16.399865 -28.585395 3.415802 -7.197252 51.454718 6.299502 -4.358569 110.670061 0.248713 -1.503055 18.790265 0.000002 -0.000002 0.000000 8.342852 -4.887160 10.899570 21.662753 -18.252924 -18.363411 -0.703619 -49.840088 -32.545520 -0.000001 0.000000 -0.000002 -1.088689 1.372443 15.119708 1.422351 -3.352165 45.974092 0.615848 -2.316437 29.773109 0.000002 -0.000002 -0.000002 -3.338834 -2.594447 56.918599 5.446152 -4.589991 99.764147 1.693538 -3.594088 50.448252 0.000000 0.000001 0.000002 -3.993111 -3.284940 64.451250 4.056994 -4.618406 82.587424 2.313931 -4.025856 59.764306 0.000000 -0.000002 0.000001 -50.796523 4.402147 1.153335 95.403966 4.335533 -1.333331 -8.360102 -3.652859 -9.798132 2.246963 -0.059867 2.238140 -0.000003 -0.000000 -0.000001 -51.284216 -2.100699 8.404584 60.430693 -2.630874 -7.507143 -5.724847 -11.339460 1.189196 -0.895119 0.000003 -0.000003 -0.000000 -0.000002 -0.000000 
-5.153542 167.977829 -13.319660 -3.710072 -20.031027 -1.291199 54.340801 6.142825 7.361089 5.726784 0.522787 1.019801 5.731808 0.523830 0.984715 -15.937714 1.135273 -0.363395 -3.689888 5.239013 10.674646 0.000002 0.000000 0.000002 0.000002 0.000000 0.000002 0.000002 0.000000 0.000002 -37.553306 -5.391759 1.515075 -87.806945 -9.554325 -85.163156 0.000034 -37.095970 0.000016 -106.741138 17.445186 8.640305 0.362503 5.489248 -52.733729 3.370879 5.301057 -64.881640 0.276620 1.780581 -17.659428 0.000004 0.000001 0.000002 1.697620 0.987255 2.012833 19.530180 -1.189313 7.516088 -4.525688 -9.582552 1.485157 0.000006 0.000002 -0.000001 -1.909012 2.110695 -39.908894 2.935324 5.074995 -60.067648 0.508881 2.390092 -24.035647 0.000005 0.000000 0.000000 -0.113580 5.720661 -61.136572 4.418873 5.673667 -75.807764 0.581338 2.546219 -25.718225 -0.000002 0.000003 0.000000 2.223150 7.080424 -64.632120 4.420364 5.674039 -75.822907 1.292705 3.672176 -38.776364 0.000000 0.000002 0.000001 -41.026733 -8.418665 -9.379946 -42.529122 42.579225 92.666372 0.000153 108.019278 -0.000173 -16.852841 -16.533736 -28.718347 3.328374 -7.144684 51.073569 6.301156 -4.357968 110.692020 0.248714 -1.503057 18.790272 0.000002 0.000000 0.000001 8.339066 -4.890137 10.838240 21.675450 -18.273702 -18.358536 -0.707687 -49.827692 -32.543580 -0.000001 0.000001 0.000001 -1.083764 1.361698 15.096315 1.422352 -3.352163 45.974089 0.615850 -2.316438 29.773116 0.000001 0.000000 -0.000005 -3.338012 -2.581574 56.821310 5.447093 -4.589835 99.776018 1.694273 -3.594721 50.460177 -0.000001 0.000000 0.000000 -3.966068 -3.283838 64.353175 4.057079 -4.618434 82.588592 2.314084 -4.025927 59.766320 -0.000001 0.000000 0.000000 -43.666690 5.043079 -2.149255 96.209970 -1.636646 -1.308138 -8.819488 -1.792937 -11.939452 -2.267635 -0.591490 6.833044 0.000001 0.000001 0.000000 -52.442097 -2.664458 8.486351 57.704874 -2.688918 -7.149410 -1.754908 -10.931001 0.252415 0.121445 -0.000007 0.000001 -0.000000 0.000000 0.000000 
-4.589312 167.179504 -21.186333 -4.116244 -19.965208 -1.401640 53.892436 6.344497 7.469709 5.778206 0.567799 0.975009 5.783443 0.559180 0.932256 -15.833932 0.971324 -0.120662 -3.508436 4.875400 10.565321 0.000003 0.000000 -0.000002 0.000003 0.000000 -0.000002 0.000003 0.000000 -0.000002 -37.536763 -5.687310 1.375734 -88.787234 -9.738640 -85.743722 0.000005 -35.036815 0.000001 -105.900171 17.971671 8.162714 0.375135 5.517539 -53.072684 3.371867 5.301516 -64.892295 0.276963 1.781646 -17.670193 -0.000000 0.000001 0.000001 1.671545 0.900975 2.209439 19.481709 -1.404824 7.608663 -4.523586 -9.567367 1.486781 0.000003 -0.000001 -0.000001 -1.842302 2.235433 -40.223486 2.931967 5.073068 -60.029679 0.507274 2.386490 -23.997077 0.000000 0.000001 0.000001 -0.100885 5.737239 -61.268614 4.417691 5.673371 -75.795791 0.580796 2.545090 -25.706038 0.000001 -0.000004 -0.000002 2.248180 7.098524 -64.885028 4.417764 5.673382 -75.796542 1.291019 3.670078 -38.749862 0.000001 -0.000002 -0.000001 -41.030029 -8.631165 -9.467423 -42.255963 42.132456 92.945187 0.000168 108.224013 -0.000180 -17.174101 -16.702802 -29.099294 3.217022 -7.076448 50.569522 6.303970 -4.356915 110.728670 0.248714 -1.503057 18.790264 0.000001 0.000001 -0.000001 8.322579 -4.884303 10.755711 21.689462 -18.296605 -18.353150 -0.708577 -49.822832 -32.541999 0.000000 -0.000000 0.000001 -1.080770 1.378504 15.014597 1.422352 -3.352162 45.974092 0.615849 -2.316439 29.773112 -0.000000 -0.000001 -0.000001 -3.349040 -2.560623 56.722471 5.455300 -4.588414 99.878464 1.700673 -3.599976 50.562115 -0.000000 -0.000000 0.000000 -3.940786 -3.278490 64.230587 4.065758 -4.619565 82.696358 2.321706 -4.030356 59.874647 -0.000001 0.000000 -0.000002 -37.384313 5.014926 -4.780365 94.345444 -3.455533 -1.636633 -7.745320 -0.452648 -12.098090 -8.874421 -2.012696 12.246715 -0.000002 -0.000001 0.000001 -53.008675 -3.240567 8.689374 54.165282 -2.688840 -6.747339 2.533336 -10.407158 -0.906759 0.160040 -0.000009 0.000001 -0.000000 0.000002 0.000000 
